<svg width="45" height="45" viewBox="0 0 45 45" fill="none" xmlns="http://www.w3.org/2000/svg">
<rect y="0.00292969" width="45" height="45" rx="22.5" fill="#1A5366"/>
<path d="M28.75 10.0029H16.25C12.7982 10.0029 10 12.8011 10 16.2529V28.7529C10 32.2047 12.7982 35.0029 16.25 35.0029H28.75C32.2018 35.0029 35 32.2047 35 28.7529V16.2529C35 12.8011 32.2018 10.0029 28.75 10.0029Z" fill="white" stroke="#1A5366" stroke-width="2" stroke-linecap="round" stroke-linejoin="round"/>
<path d="M27.5 21.7154C27.6543 22.7557 27.4766 23.8182 26.9922 24.7517C26.5078 25.6852 25.7414 26.4422 24.802 26.915C23.8626 27.3879 22.7981 27.5524 21.7597 27.3853C20.7214 27.2183 19.7622 26.728 19.0185 25.9844C18.2749 25.2407 17.7847 24.2815 17.6176 23.2432C17.4505 22.2049 17.6151 21.1403 18.0879 20.2009C18.5607 19.2615 19.3177 18.4951 20.2512 18.0107C21.1847 17.5264 22.2472 17.3487 23.2875 17.5029C24.3487 17.6603 25.3311 18.1548 26.0896 18.9133C26.8482 19.6719 27.3426 20.6543 27.5 21.7154Z" stroke="#1A5366" stroke-width="2" stroke-linecap="round" stroke-linejoin="round"/>
<path d="M29.375 15.6279H29.3875" stroke="#1A5366" stroke-width="2" stroke-linecap="round" stroke-linejoin="round"/>
</svg>
